# xmcd CD database file
#
# Track frame offsets:
#	150
#	12572
#	28550
#	53035
#	93495
#	129822
#
# Disc length: 2246 seconds
#
# Revision: 2
# Processed by: cddbd v1.4PL0 Copyright (c) Steve Scherf et al.
# Submitted via: CDex 1.50beta9
#
DISCID=4108c406
DTITLE=Rapination and Kim Mazelle - Love Me The Right Way
DYEAR=1996
DGENRE=House
TTITLE0=Love Me The Right Way - The Re Rapinated Radio Mix
TTITLE1=Love Me The Right Way - DT's International Radio Edit
TTITLE2=Love Me The Right Way - The Re Rapinated Mix
TTITLE3=Love Me The Right Way - DT's International Mix
TTITLE4=Love Me The Right Way - Kama's Love Mix
TTITLE5=Love Me The Right Way - Alex Neri's Up and Down mix
EXTD=YEAR: 1996
EXTT0=
EXTT1=
EXTT2=
EXTT3=
EXTT4=
EXTT5=
PLAYORDER=
